<svg xmlns="http://www.w3.org/2000/svg" width="80" height="50" viewBox="0 0 80 50">
    <title>Logo</title>
    <path fill="#FFFFFF" fill-rule="evenodd" d="M6.07,12.58 L6.07,34 L21.22,34 L21.22,30.04 L10.78,30.04 L10.78,12.58 L6.07,12.58 Z M27.19,26.26 C27.19,26.8800031 27.2499994,27.484997 27.37,28.075 C27.4900006,28.665003 27.6949986,29.1949976 27.985,29.665 C28.2750015,30.1350024 28.6599976,30.5099986 29.14,30.79 C29.6200024,31.0700014 30.2199964,31.21 30.94,31.21 C31.6600036,31.21 32.2649976,31.0700014 32.755,30.79 C33.2450025,30.5099986 33.6349986,30.1350024 33.925,29.665 C34.2150015,29.1949976 34.4199994,28.665003 34.54,28.075 C34.6600006,27.484997 34.72,26.8800031 34.72,26.26 C34.72,25.6399969 34.6600006,25.030003 34.54,24.43 C34.4199994,23.829997 34.2150015,23.3000023 33.925,22.84 C33.6349986,22.3799977 33.2450025,22.0050014 32.755,21.715 C32.2649976,21.4249985 31.6600036,21.28 30.94,21.28 C30.2199964,21.28 29.6200024,21.4249985 29.14,21.715 C28.6599976,22.0050014 28.2750015,22.3799977 27.985,22.84 C27.6949986,23.3000023 27.4900006,23.829997 27.37,24.43 C27.2499994,25.030003 27.19,25.6399969 27.19,26.26 Z M22.93,26.26 C22.93,25.0199938 23.1199981,23.8950051 23.5,22.885 C23.8800019,21.874995 24.4199965,21.0150035 25.12,20.305 C25.8200035,19.5949964 26.6599951,19.0450019 27.64,18.655 C28.6200049,18.2649981 29.7199939,18.07 30.94,18.07 C32.1600061,18.07 33.264995,18.2649981 34.255,18.655 C35.245005,19.0450019 36.0899965,19.5949964 36.79,20.305 C37.4900035,21.0150035 38.0299981,21.874995 38.41,22.885 C38.7900019,23.8950051 38.98,25.0199938 38.98,26.26 C38.98,27.5000062 38.7900019,28.619995 38.41,29.62 C38.0299981,30.620005 37.4900035,31.4749964 36.79,32.185 C36.0899965,32.8950035 35.245005,33.4399981 34.255,33.82 C33.264995,34.2000019 32.1600061,34.39 30.94,34.39 C29.7199939,34.39 28.6200049,34.2000019 27.64,33.82 C26.6599951,33.4399981 25.8200035,32.8950035 25.12,32.185 C24.4199965,31.4749964 23.8800019,30.620005 23.5,29.62 C23.1199981,28.619995 22.93,27.5000062 22.93,26.26 Z M48.97,30.34 C49.570003,30.34 50.0999977,30.2200012 50.56,29.98 C51.0200023,29.7399988 51.3999985,29.420002 51.7,29.02 C52.0000015,28.619998 52.2249993,28.1650026 52.375,27.655 C52.5250008,27.1449974 52.6,26.6100028 52.6,26.05 C52.6,25.4099968 52.5400006,24.8050029 52.42,24.235 C52.2999994,23.6649971 52.1000014,23.1600022 51.82,22.72 C51.5399986,22.2799978 51.1700023,21.9300013 50.71,21.67 C50.2499977,21.4099987 49.6700035,21.28 48.97,21.28 C48.369997,21.28 47.8550022,21.3999988 47.425,21.64 C46.9949979,21.8800012 46.6350015,22.2049979 46.345,22.615 C46.0549986,23.025002 45.8450007,23.4949973 45.715,24.025 C45.5849994,24.5550026 45.52,25.1099971 45.52,25.69 C45.52,26.2500028 45.5749994,26.8049972 45.685,27.355 C45.7950006,27.9050028 45.9849987,28.3999978 46.255,28.84 C46.5250014,29.2800022 46.8799978,29.6399986 47.32,29.92 C47.7600022,30.2000014 48.3099967,30.34 48.97,30.34 Z M56.65,33.01 C56.65,33.6300031 56.5650009,34.339996 56.395,35.14 C56.2249992,35.940004 55.8600028,36.6849966 55.3,37.375 C54.7399972,38.0650034 53.9300053,38.6499976 52.87,39.13 C51.8099947,39.6100024 50.3900089,39.85 48.61,39.85 C47.8499962,39.85 47.075004,39.7550009 46.285,39.565 C45.4949961,39.374999 44.7750033,39.080002 44.125,38.68 C43.4749968,38.279998 42.9350022,37.7650031 42.505,37.135 C42.0749979,36.5049968 41.8300003,35.7500044 41.77,34.87 L46,34.87 C46.200001,35.670004 46.5899971,36.2249985 47.17,36.535 C47.7500029,36.8450015 48.4199962,37 49.18,37 C50.380006,37 51.2549973,36.6400036 51.805,35.92 C52.3550028,35.1999964 52.6200001,34.2900055 52.6,33.19 L52.6,31.15 L52.54,31.15 C52.0799977,31.9700041 51.4250043,32.574998 50.575,32.965 C49.7249958,33.355002 48.8300047,33.55 47.89,33.55 C46.7299942,33.55 45.7300042,33.3450021 44.89,32.935 C44.0499958,32.5249979 43.3600027,31.9650035 42.82,31.255 C42.2799973,30.5449964 41.8850013,29.7150047 41.635,28.765 C41.3849988,27.8149952 41.26,26.8100053 41.26,25.75 C41.26,24.749995 41.4049986,23.7850046 41.695,22.855 C41.9850015,21.9249954 42.4099972,21.1050035 42.97,20.395 C43.5300028,19.6849964 44.2249959,19.1200021 45.055,18.7 C45.8850042,18.2799979 46.8399946,18.07 47.92,18.07 C48.9400051,18.07 49.8349962,18.2599981 50.605,18.64 C51.3750039,19.0200019 52.0199974,19.6599955 52.54,20.56 L52.6,20.56 L52.6,18.49 L56.65,18.49 L56.65,33.01 Z M63.85,26.26 C63.85,26.8800031 63.9099994,27.484997 64.03,28.075 C64.1500006,28.665003 64.3549986,29.1949976 64.645,29.665 C64.9350015,30.1350024 65.3199976,30.5099986 65.8,30.79 C66.2800024,31.0700014 66.8799964,31.21 67.6,31.21 C68.3200036,31.21 68.9249976,31.0700014 69.415,30.79 C69.9050024,30.5099986 70.2949986,30.1350024 70.585,29.665 C70.8750015,29.1949976 71.0799994,28.665003 71.2,28.075 C71.3200006,27.484997 71.38,26.8800031 71.38,26.26 C71.38,25.6399969 71.3200006,25.030003 71.2,24.43 C71.0799994,23.829997 70.8750015,23.3000023 70.585,22.84 C70.2949986,22.3799977 69.9050024,22.0050014 69.415,21.715 C68.9249976,21.4249985 68.3200036,21.28 67.6,21.28 C66.8799964,21.28 66.2800024,21.4249985 65.8,21.715 C65.3199976,22.0050014 64.9350015,22.3799977 64.645,22.84 C64.3549986,23.3000023 64.1500006,23.829997 64.03,24.43 C63.9099994,25.030003 63.85,25.6399969 63.85,26.26 Z M59.59,26.26 C59.59,25.0199938 59.7799981,23.8950051 60.16,22.885 C60.5400019,21.874995 61.0799965,21.0150035 61.78,20.305 C62.4800035,19.5949964 63.3199951,19.0450019 64.3,18.655 C65.2800049,18.2649981 66.3799939,18.07 67.6,18.07 C68.8200061,18.07 69.9249951,18.2649981 70.915,18.655 C71.9050049,19.0450019 72.7499965,19.5949964 73.45,20.305 C74.1500035,21.0150035 74.6899981,21.874995 75.07,22.885 C75.4500019,23.8950051 75.64,25.0199938 75.64,26.26 C75.64,27.5000062 75.4500019,28.619995 75.07,29.62 C74.6899981,30.620005 74.1500035,31.4749964 73.45,32.185 C72.7499965,32.8950035 71.9050049,33.4399981 70.915,33.82 C69.9249951,34.2000019 68.8200061,34.39 67.6,34.39 C66.3799939,34.39 65.2800049,34.2000019 64.3,33.82 C63.3199951,33.4399981 62.4800035,32.8950035 61.78,32.185 C61.0799965,31.4749964 60.5400019,30.620005 60.16,29.62 C59.7799981,28.619995 59.59,27.5000062 59.59,26.26 Z"/>
</svg>
