<svg xmlns="http://www.w3.org/2000/svg" width="80" height="80" viewBox="0 0 80 80">
    <title>YouTube</title>
    <path fill="#FFFFFF" fill-rule="evenodd" d="M59.05563,22.3674978 C63.2125313,22.5203953 65.2384234,26.7983405 65.5187355,30.1907542 C66.098472,37.3196011 66.098472,41.8173364 65.5187355,48.9429979 C65.2416088,52.3354116 62.6710192,56.6706934 59.0588153,57.2982103 C47.5246087,58.1901125 33.8370953,58.0818101 21.8792351,57.2982103 C18.1459874,56.8267763 15.6964417,52.3354116 15.4193149,48.9429979 C14.8395785,41.8173364 14.8395785,37.7623668 15.4193149,30.6367053 C15.6932563,27.2442916 18.2065093,22.7784099 21.8760498,22.3674978 C33.6937539,21.3736639 47.4513453,21.5870834 59.05563,22.3674978 Z M34.0951099,48.8283248 L50.0219348,39.6958834 L34.0951099,30.5602566 L34.0951099,48.8283248 Z"/>
</svg>
